<?xml version="1.0" encoding="iso-8859-1"?>
<!-- Uploaded to: SVG Repo, www.svgrepo.com, Generator: SVG Repo Mixer Tools -->
<svg height="800px" width="800px" version="1.1" id="Layer_1" xmlns="http://www.w3.org/2000/svg" xmlns:xlink="http://www.w3.org/1999/xlink" 
	 viewBox="0 0 503.681 503.681" xml:space="preserve">
	<g transform="translate(-1)">
	 <animate attributeType="XML" attributeName="fill" from="#c50000" to="#999"
        dur="7s" repeatCount="indefinite"/>
	<g>
		<g>
			<polygon points="403.934,148.047 445.901,106.08 445.901,11.133 403.934,53.092 			"/>
			<path d="M494.844,9.662c-8.41-8.419-20.942-11.121-32.155-8.368v87.997l32.155-32.155c6.345-6.337,9.837-14.772,9.837-23.737
				S501.189,15.999,494.844,9.662z"/>
			<path d="M346.218,124.713c0,6.085,1.729,11.86,4.742,16.963L240.083,252.553c-22.411,6.488-202.148,60.995-234.143,149.756
				c-9.652,26.8-5.145,53.953,13.413,80.72c0.025,0.042,0.076,0.067,0.101,0.109c0.042,0.05,0.059,0.109,0.092,0.159
				c0.478,0.63,1.041,1.192,1.67,1.67c0.025,0.017,0.059,0.025,0.084,0.042c0.025,0.025,0.042,0.05,0.067,0.067
				c17.081,12.221,34.455,18.348,51.905,18.348c8.544,0,17.123-1.469,25.676-4.415c88.551-30.51,146.197-212.253,152.962-234.546
				l110.919-110.919c5.103,3.013,10.878,4.742,16.963,4.742c2.518,0,4.961-0.336,7.353-0.873V69.887l-31.089,31.089
				C349.709,107.313,346.218,115.74,346.218,124.713z M21.173,449.942c-4.616-14.076-4.474-27.95,0.562-41.934
				c17.341-48.128,87.174-86.604,144.51-110.928C109.145,335.078,37.566,392.472,21.173,449.942z M137.481,338.124
				c18.894-14.294,38.005-27.17,54.91-37.88L36.894,455.742C45.942,421.639,80.171,381.485,137.481,338.124z M204.26,312.113
				c-10.71,16.913-23.577,36.016-37.871,54.91c-43.36,57.31-83.523,91.539-117.626,100.587L204.26,312.113z M93.483,483.138
				c-13.253,4.558-26.288,4.616-39.432,0.26c56.11-15.679,112.195-84.102,150.301-140.565
				C179.062,399.741,140.318,466.997,93.483,483.138z"/>
		</g>
	</g>
</g>
</svg>