<?xml version="1.0" standalone="no"?>
<!DOCTYPE svg PUBLIC "-//W3C//DTD SVG 20010904//EN"
 "http://www.w3.org/TR/2001/REC-SVG-20010904/DTD/svg10.dtd">
<svg version="1.0" xmlns="http://www.w3.org/2000/svg"
 width="1920.000000pt" height="1920.000000pt" viewBox="0 0 1920.000000 1920.000000"
 preserveAspectRatio="xMidYMid meet">

<g transform="translate(0.000000,1920.000000) scale(0.100000,-0.100000)"
fill="#000000" stroke="none">

 <animate attributeType="XML" attributeName="fill" from="red" to="green"
        dur="3s" repeatCount="indefinite"/>
<path d="M11280 16174 c-813 -88 -1406 -482 -1737 -1152 -30 -62 -57 -112 -58
-110 -2 2 -25 53 -51 113 -111 255 -285 582 -333 627 -37 34 -99 42 -264 36
-247 -10 -441 -92 -616 -262 -67 -64 -81 -102 -59 -153 7 -17 67 -87 132 -154
338 -352 639 -804 852 -1281 57 -129 156 -380 151 -385 -2 -2 -28 7 -58 21
-160 71 -480 163 -699 201 -243 43 -649 45 -873 6 -553 -97 -970 -328 -1412
-782 -409 -420 -704 -930 -835 -1444 -48 -189 -111 -591 -130 -834 -13 -174
-13 -628 0 -802 79 -1018 433 -1983 1029 -2804 375 -517 862 -982 1390 -1329
272 -179 446 -274 551 -301 191 -50 417 -16 565 84 l47 32 92 -36 c170 -66
322 -83 496 -58 130 20 150 20 280 0 174 -25 326 -8 496 58 l92 36 47 -32
c108 -73 282 -117 423 -106 155 12 253 51 492 195 1054 637 1848 1591 2285
2747 177 469 276 910 335 1490 15 151 5 829 -14 985 -22 176 -60 413 -91 564
-113 549 -420 1103 -860 1555 -446 458 -891 701 -1440 787 -141 22 -473 30
-631 15 -316 -30 -644 -114 -948 -242 -38 -16 -70 -28 -71 -27 -1 2 -7 48 -14
103 -19 152 -78 476 -111 609 -16 66 -28 122 -26 123 2 2 55 -28 119 -66 523
-318 1087 -481 1530 -442 268 24 473 81 691 193 544 278 1006 820 1412 1653
199 409 213 458 150 521 -39 39 -63 42 -172 19 -177 -37 -300 -48 -519 -49
-219 0 -310 7 -585 45 -358 49 -780 63 -1050 33z m795 -238 c72 -8 218 -27
325 -41 240 -32 570 -43 774 -26 76 6 141 9 145 6 3 -4 -45 -106 -106 -229
-280 -553 -555 -936 -869 -1207 -269 -232 -519 -361 -816 -421 -96 -19 -144
-23 -313 -22 -185 0 -211 2 -350 32 -144 30 -338 90 -474 147 -166 69 -413
203 -604 328 -103 67 -108 71 -90 87 140 131 374 306 548 410 273 162 537 270
875 356 84 22 140 41 148 52 25 33 -7 92 -49 92 -10 0 -67 -9 -126 -21 -495
-95 -873 -250 -1307 -534 l-28 -19 25 50 c72 141 193 307 313 429 306 312 736
497 1265 544 141 13 554 5 714 -13z m-3500 -738 c5 4 5 1 1 -6 -6 -10 -11 -10
-22 -1 -8 6 -14 14 -14 16 0 3 6 0 13 -6 8 -6 18 -7 22 -3z m145 -164 c0 -8
-19 -13 -24 -6 -3 5 1 9 9 9 8 0 15 -2 15 -3z m28 -19 c-3 -3 -9 2 -12 12 -6
14 -5 15 5 6 7 -7 10 -15 7 -18z m-7 -22 c13 -16 12 -17 -3 -4 -17 13 -22 21
-14 21 2 0 10 -8 17 -17z m520 -756 c-10 -9 -11 -8 -5 6 3 10 9 15 12 12 3 -3
0 -11 -7 -18z m-995 -767 c187 -15 511 -78 615 -119 21 -9 21 -10 4 -10 -11 0
-63 4 -115 10 -126 13 -440 13 -565 -1 -550 -60 -980 -261 -1364 -636 l-114
-111 66 -78 c76 -89 148 -226 174 -330 24 -101 22 -286 -5 -386 -76 -282 -289
-489 -582 -566 -92 -24 -282 -22 -373 5 -37 11 -70 16 -73 11 -8 -14 -81 -391
-98 -509 -40 -276 -51 -441 -51 -790 0 -351 9 -486 46 -742 112 -783 396
-1522 872 -2273 38 -60 77 -119 86 -130 15 -19 15 -19 -2 -6 -10 8 -55 60
-101 115 -519 637 -902 1436 -1061 2219 -70 341 -102 608 -111 937 -17 601 84
1275 249 1665 160 378 375 700 666 999 301 308 613 513 947 622 294 95 577
129 890 104z"/>
</g>
</svg>
